<svg version="1.0" xmlns="http://www.w3.org/2000/svg" width="786.667" height="340" viewBox="0 0 590 255"><path d="M1.6 24.8c-.2.4 3.6 7.3 8.6 15.2l9 14.5 65.8-.3 65.8-.2 8.9-13.8c5-7.5 9.3-14.2 9.7-14.9.5-1-17.7-1.2-83.3-1.2-46.2 0-84.2.3-84.5.7zm166.2 19.4c-7.3 11.2-16.7 25.4-20.9 31.8l-7.6 11.5 4.6.3c2.5.1 10.9-.1 18.5-.5l13.9-.8L191.7 63c8.4-12.9 17.5-26.9 20.2-31.1l4.8-7.6-17.8-.1-17.8-.2-13.3 20.2z" fill="#d80f7e"/><path d="M292 49.5c0 14 .3 25.5.7 25.5.8 0 43.6-14.1 44.1-14.5.2-.2.4-27.7.3-34.3L337 24h-45v25.5z"/><path d="M361.5 58.5C307 76.9 261.8 91.9 261 91.9c-1.1.1-4.2-7.8-11.5-29.4C244 46.3 239.3 33 239 33c-.6 0-1.7 3.2-14.1 39.2L217.8 93l-21.7.1c-11.9.1-26.1.4-31.6.8l-10 .6 24.5 18.4c13.5 10.1 24.8 18.7 25.2 19 .5.4-2.8 12.1-7.1 26.1-4.3 14-8.6 27.9-9.4 30.8l-1.6 5.3 2.7-1.9c14.4-10 41.6-29.2 45.3-31.8l4.7-3.4 25.7 18.1c14.1 9.9 25.9 17.8 26.2 17.6.2-.3-3.7-13.9-8.7-30.2-5.1-16.3-9-29.8-8.8-30 .3-.4 13.2-7.7 125.3-71.2 33-18.7 60.9-34.5 62-35.1 1.1-.6 1.6-1.1 1-1.1-.5.1-45.5 15.1-100 33.4z"/><path d="M460.5 62.9c16.5 4.9 28 13.7 34.8 26.6 1.5 2.9 1.6 2.2 1.7-12.8V61l-21.2.1-21.3.1 6 1.7zM37.7 83.7c4.7 7.6 9 14.4 9.5 15 .8 1 9.5 1.3 37.2 1.3h36.1l8-12.1c4.4-6.7 8.8-13.4 9.8-15l1.9-2.9H29.1l8.6 13.7zm387.3-13c-4.4.7-9.3 2.5-18 6.5-15.7 7.4-27.9 22.6-32.6 40.8-2.3 9-1.5 25.1 1.6 34 9.4 26.8 36.6 44.8 64 42.3l6-.6v-46.8l-3 1.6c-3.8 2-11.1 1.9-15.3-.1-7.8-3.7-11.2-15.7-6.7-23.2 3.4-5.6 7-8 12.8-8.8 9.4-1.2 16.4 4.1 18.3 13.9.4 2.3.8 17.1.9 32.9V192h45.2l-.4-36.8c-.4-35-.5-37-2.7-43.7-6.4-19.6-17.5-31.2-36.1-38-6.3-2.2-9.4-2.7-19.5-2.9-6.6-.2-13.1-.1-14.5.1z" fill="#d80f7e"/><path d="M558.9 71.9c-15.3 4.9-27 17.1-32.5 33.8l-2.9 8.8v77l22.7.3 22.7.2.3-33.3.3-33.4 2.5-3.6c3.1-4.6 7.5-5.7 13.8-3.5l4.2 1.6-.2-24.7-.3-24.6-12.5-.2c-9.7-.2-13.7.2-18.1 1.6z"/><path d="M133.5 96.3c-2.2 3.4-13.2 20.2-24.5 37.3l-20.5 31.2 8.9 14.2c7.2 11.5 9.1 13.9 10.1 12.8 1-1.1 51.5-78.5 53.9-82.5.4-.8-3.7-4.5-11.3-10.2-6.6-5-12.1-9.1-12.3-9.1-.2 0-2.1 2.8-4.3 6.3z" fill="#d80f7e"/><path d="M324.2 110.3l-32.4 18.2.7 6.8c3.3 34.7 24.2 55.5 58.7 58.3l7.8.7-.2-24.4-.3-24.4-5.5-.8c-10.4-1.5-15-7.4-15-19.4V120h20v-14c0-7.7-.3-14-.7-14-.5 0-15.4 8.2-33.1 18.3z"/><path d="M57.7 115.5c2.3 4 23.9 38.3 24.8 39.3.9 1 3.9-2.9 14.4-18.9 7.3-11 13-20.3 12.8-20.6-1-1-52.5-.8-52 .2z" fill="#d80f7e"/></svg>